<?xml version="1.0" standalone="no"?>
<!DOCTYPE svg PUBLIC "-//W3C//DTD SVG 20010904//EN"
 "http://www.w3.org/TR/2001/REC-SVG-20010904/DTD/svg10.dtd">
<svg version="1.0" xmlns="http://www.w3.org/2000/svg"
 width="1008.000000pt" height="1008.000000pt" viewBox="0 0 1008.000000 1008.000000"
 preserveAspectRatio="xMidYMid meet">
<metadata>
Created by potrace 1.14, written by Peter Selinger 2001-2017
</metadata>
<g transform="translate(0.000000,1008.000000) scale(0.100000,-0.100000)"
fill="#000000" stroke="none">
<path d="M138 8251 c3 -9 28 -61 55 -116 27 -55 96 -197 154 -315 58 -118 158
-323 223 -455 65 -132 166 -339 225 -460 115 -237 276 -564 468 -955 67 -135
121 -248 121 -252 1 -4 7 -13 14 -20 6 -6 12 -16 12 -21 0 -5 54 -119 120
-254 66 -135 120 -249 120 -254 0 -5 5 -9 10 -9 6 0 10 -6 10 -13 0 -6 33 -80
74 -162 218 -443 286 -585 286 -594 0 -6 5 -11 10 -11 6 0 10 -4 10 -9 0 -12
207 -437 581 -1196 78 -159 143 -292 143 -295 1 -3 33 -70 73 -150 39 -80 128
-262 198 -405 70 -143 149 -305 176 -360 l49 -100 225 0 c124 0 225 -3 225 -7
0 -4 10 -4 23 1 12 4 27 7 32 5 6 -2 39 56 73 129 35 72 84 173 109 224 24 51
44 96 44 100 0 4 6 15 13 23 8 8 19 32 26 53 6 20 16 37 21 37 5 0 9 5 9 12 0
12 14 43 125 273 40 83 95 197 123 255 27 58 78 164 113 235 34 72 63 132 64
135 1 3 29 61 62 130 88 183 164 340 226 470 125 263 191 400 233 486 24 50
44 96 44 102 0 7 5 12 10 12 6 0 10 9 10 20 0 11 4 20 10 20 5 0 9 3 8 8 -1 4
22 57 51 117 90 187 93 193 95 208 1 8 7 21 13 28 10 13 112 220 228 464 23
50 70 146 103 215 33 69 83 175 112 235 29 61 78 164 110 230 123 255 184 384
231 485 27 58 54 113 59 123 15 25 24 44 63 127 20 41 66 138 102 215 37 77
88 183 112 235 25 52 49 97 54 100 9 6 282 5 1094 -4 513 -6 527 -7 612 -30
72 -20 187 -67 191 -78 2 -4 10 -8 18 -8 8 0 14 -4 14 -10 0 -5 5 -10 11 -10
25 0 142 -104 201 -180 110 -140 162 -298 161 -490 -2 -191 -54 -342 -168
-485 -38 -47 -56 -66 -130 -130 -38 -33 -159 -105 -177 -105 -7 0 -22 -6 -33
-14 -11 -7 -51 -22 -90 -32 -65 -18 -113 -19 -676 -19 l-605 1 0 -426 1 -425
50 -2 c159 -6 899 -5 945 2 115 15 229 11 343 -11 17 -4 39 -7 47 -9 68 -10
241 -78 325 -129 191 -114 363 -303 450 -496 27 -59 73 -194 80 -236 14 -78
15 -90 20 -157 2 -37 7 -71 9 -76 3 -4 1 -13 -4 -21 -4 -7 -4 -23 0 -36 5 -12
6 -25 3 -28 -3 -3 -7 -18 -8 -33 -5 -59 -16 -124 -25 -148 -5 -14 -8 -25 -5
-25 10 0 -62 -190 -92 -240 -8 -14 -20 -37 -26 -52 -6 -16 -15 -28 -19 -28 -4
0 -8 -6 -8 -14 0 -8 -3 -16 -7 -18 -5 -1 -27 -29 -50 -60 -48 -64 -138 -156
-186 -190 -18 -12 -36 -28 -42 -34 -17 -21 -186 -113 -254 -138 -80 -30 -162
-53 -216 -61 -23 -3 -52 -8 -65 -10 -38 -8 -198 -8 -260 -1 -49 6 -377 10
-1273 16 l-258 2 -88 182 c-49 99 -157 320 -240 489 -83 170 -151 312 -151
317 0 4 -7 13 -15 20 -9 7 -14 15 -11 17 5 6 -102 221 -115 228 -5 4 -9 2 -9
-3 0 -5 -11 -25 -24 -44 -12 -19 -36 -59 -53 -89 -16 -30 -42 -74 -58 -99 -16
-25 -33 -54 -39 -65 -35 -65 -132 -221 -141 -227 -5 -4 -6 -8 -1 -8 5 0 2 -7
-5 -16 -15 -18 -29 -41 -61 -102 -12 -23 -26 -42 -30 -42 -4 0 -8 -6 -8 -12 0
-7 -14 -33 -30 -58 -69 -103 -70 -88 15 -253 41 -81 75 -153 75 -161 0 -8 4
-16 8 -18 9 -3 162 -312 162 -326 0 -4 6 -14 12 -20 7 -7 13 -16 13 -20 1 -7
236 -492 253 -522 8 -12 44 -15 218 -17 115 -1 511 -5 879 -8 981 -10 1425
-11 1470 -2 22 4 51 9 65 12 21 4 80 18 160 40 8 2 16 4 18 5 1 2 5 3 10 4 83
21 223 80 342 143 104 55 246 145 265 167 6 7 25 23 44 36 105 73 380 368 381
407 0 7 6 16 14 20 18 10 119 186 167 290 37 80 103 263 113 313 3 14 10 43
16 65 9 37 20 93 25 140 1 11 3 20 4 20 5 0 22 239 22 300 0 63 -15 234 -26
295 -3 14 -7 39 -10 55 -17 106 -103 384 -126 410 -5 5 -9 17 -9 27 0 10 -4
18 -10 18 -5 0 -10 6 -10 14 0 41 -156 288 -275 436 -71 88 -228 232 -380 348
-5 4 -27 18 -48 31 -20 12 -37 25 -37 28 0 2 25 30 56 61 72 73 170 199 222
283 44 73 132 252 132 270 0 6 6 25 14 42 28 61 63 214 82 352 10 71 5 370 -6
370 0 0 -3 16 -4 35 -5 44 -14 94 -28 145 -5 22 -11 45 -12 50 -1 6 -10 35
-20 65 -101 308 -304 591 -561 781 -44 32 -85 62 -90 66 -76 58 -375 187 -476
207 -13 2 -46 9 -74 16 -27 6 -97 13 -154 16 -57 2 -108 7 -112 10 -5 3 -9 1
-9 -4 0 -5 -17 -7 -37 -5 -35 4 -64 5 -103 3 -8 -1 -238 1 -510 5 -272 3 -718
7 -991 9 l-496 4 -28 -57 c-16 -31 -29 -58 -30 -61 0 -3 -23 -50 -50 -105 -27
-55 -50 -102 -50 -105 -1 -3 -26 -54 -55 -115 -30 -60 -54 -112 -55 -115 -1
-3 -17 -38 -37 -77 -20 -40 -33 -73 -30 -73 4 0 2 -4 -4 -8 -5 -4 -18 -25 -28
-47 -10 -22 -48 -101 -84 -175 -35 -74 -86 -180 -112 -235 -26 -55 -76 -158
-110 -230 -34 -71 -79 -166 -100 -210 -21 -44 -72 -152 -115 -240 -42 -88 -99
-205 -125 -260 -26 -55 -77 -161 -113 -235 -36 -74 -90 -187 -120 -250 -117
-246 -180 -378 -215 -450 -20 -41 -36 -78 -34 -82 1 -5 -3 -8 -8 -8 -6 0 -10
-4 -10 -9 0 -5 -33 -78 -74 -163 -40 -84 -94 -196 -119 -248 -25 -52 -80 -167
-122 -255 -42 -88 -96 -200 -120 -250 -65 -137 -145 -304 -225 -470 -39 -82
-90 -188 -112 -235 -22 -47 -45 -94 -51 -105 -11 -20 -22 -43 -49 -103 l-15
-33 -85 173 c-47 95 -130 263 -183 373 -54 110 -134 274 -178 365 -45 91 -80
167 -78 169 1 2 -1 7 -6 10 -5 3 -19 26 -30 51 -12 25 -70 146 -131 270 -60
124 -156 319 -212 434 -55 114 -136 280 -180 367 -43 88 -76 159 -73 159 3 0
0 7 -7 15 -11 13 -112 211 -115 225 0 3 -24 53 -53 111 -29 58 -52 110 -52
116 0 6 -3 13 -7 15 -11 4 -53 90 -53 106 0 6 -4 12 -10 12 -5 0 -10 9 -10 20
0 11 -4 20 -10 20 -5 0 -10 5 -10 10 0 6 -27 66 -60 133 -33 68 -60 129 -60
135 0 7 -4 12 -9 12 -5 0 -13 10 -17 22 -4 12 -68 148 -144 303 -254 519 -272
557 -266 562 3 4 6 3 6 0 0 -4 11 -2 24 3 13 5 26 6 29 4 3 -3 203 -7 444 -9
241 -2 590 -4 777 -6 l338 -2 145 -296 c80 -163 184 -375 231 -471 47 -96 85
-178 84 -182 -1 -5 3 -8 8 -8 6 0 10 -4 10 -10 0 -5 54 -120 120 -255 66 -135
120 -249 120 -254 0 -5 3 -11 8 -13 4 -1 19 -29 34 -60 30 -64 41 -66 74 -15
43 64 184 308 184 317 0 4 4 10 8 12 7 3 110 172 176 291 16 29 33 54 38 55 4
2 8 8 8 14 0 5 16 36 36 68 l36 58 -123 249 c-67 136 -123 250 -124 253 0 3
-43 91 -94 195 -84 169 -337 687 -394 805 -12 25 -26 48 -32 52 -5 4 -6 8 -2
8 4 0 3 9 -3 19 -8 17 -20 20 -71 18 -33 -2 -63 1 -65 5 -3 5 -10 6 -15 2 -5
-3 -49 -5 -97 -4 -48 0 -301 3 -562 5 -261 2 -797 7 -1190 10 -1538 14 -1489
14 -1482 -4z"/>
</g>
</svg>
