<?xml version="1.0" encoding="utf-8"?>
<!-- Generator: Adobe Illustrator 25.4.1, SVG Export Plug-In . SVG Version: 6.00 Build 0)  -->
<svg version="1.1" id="Layer_1" xmlns="http://www.w3.org/2000/svg" xmlns:xlink="http://www.w3.org/1999/xlink" x="0px" y="0px"
	 viewBox="0 0 62.85 41.34" style="enable-background:new 0 0 62.85 41.34;" xml:space="preserve">
<style type="text/css">
	.st0{fill:#344675;}
</style>
<path class="st0" d="M62.35,28.63c0,2.58-0.79,4.97-2.14,6.94c-1.94,2.82-5.02,4.8-8.59,5.26c0,0,0,0,0,0c0,0,0,0,0,0s0,0,0,0
	c0,0,0,0,0,0s0,0,0,0l-3.32-0.03h-0.01l-6.18-0.06l-5.97-0.05h0l-2.62-5.36h0L32.35,33l3.26-5.48l3.85,7.88l0.29,0l9.02,0.08
	c0.34,0.05,0.69,0.08,1.04,0.08c0.31,0,0.62-0.02,0.91-0.06c3.47-0.45,6.15-3.41,6.15-7.01c0-3.39-2.39-6.23-5.58-6.91
	c-0.48-0.1-0.98-0.16-1.49-0.16c-0.47,0-0.92,0.05-1.36,0.13l-5.71-0.05v-5.34l2.01,0.02l4.66,0.04c2.68,0.02,4.96-2.05,5.07-4.72
	c0-0.09,0.01-0.17,0.01-0.26c0-0.08,0-0.17-0.01-0.25c-0.11-2.63-2.32-4.68-4.96-4.71l-4.7-0.04L41.01,6.2L40.08,6.2l-4.74,9.9
	l-2.55,5.32l-0.16,0l0.08,0.17v0l-2.94,6.14v0l-3.62,7.55l-1.39,2.89l-1.16,2.42l-3.21-0.03l-1.36-2.78l-1.26-2.58l-6.84-13.98
	l-2.62-5.36h0L3.42,5.87L0.8,0.51l5.57,0.05l10.16,0.09L22.5,0.7l2.62,5.36l2.26,4.61l-3.16,5.32l-0.18,0l-4.88-9.98L9,5.92
	l4.88,9.99l2.62,5.36l5.27,10.79l5.01-10.45v0l0.12-0.25l2.55-5.32l0.28-0.58l4.46-9.32l2.55-5.32l5.9,0.05l6.11,0.06l2.34,0.02
	c0,0,0,0,0,0c3.34,0.43,6.17,2.51,7.62,5.41c0.67,1.34,1.05,2.85,1.05,4.45c0,2.02-0.61,3.91-1.65,5.48
	c-0.45,0.69-0.99,1.32-1.6,1.87c1.45,0.9,2.7,2.09,3.66,3.49v0C61.55,23.64,62.35,26.04,62.35,28.63z"/>
</svg>
